<?xml version="1.0" encoding="UTF-8" standalone="no"?>
<svg width="54px" height="26px" viewBox="0 0 54 26" version="1.1" xmlns="http://www.w3.org/2000/svg" xmlns:xlink="http://www.w3.org/1999/xlink">
    <!-- Generator: Sketch 47 (45396) - http://www.bohemiancoding.com/sketch -->
    <title>Group 6</title>
    <desc>Created with Sketch.</desc>
    <defs></defs>
    <g id="Style-Guide" stroke="none" stroke-width="1" fill="none" fill-rule="evenodd">
        <g id="PacMan_favicon" transform="translate(-23.000000, -37.000000)" fill="#FFFFFF">
            <g id="Group-6" transform="translate(23.000000, 37.000000)">
                <path d="M23.2168433,4.96070474 C20.8363799,1.93963119 17.1447025,0 13,0 C5.82029825,0 0,5.82029825 0,13 C0,20.1797017 5.82029825,26 13,26 C17.1745563,26 20.8895379,24.0323263 23.2680775,20.9738459 L12,13.1543391 L23.2168433,4.96070474 Z M25.9009901,11.3876202 C25.9663428,11.9159113 26,12.4540251 26,13 C26,13.5459749 25.9663428,14.0840887 25.9009901,14.6123798 L25.9009901,11.3876202 Z" id="Combined-Shape"></path>
                <rect id="Rectangle-16-Copy" x="27" y="11" width="4" height="4"></rect>
                <rect id="Rectangle-16-Copy-2" x="38" y="11" width="4" height="4"></rect>
                <rect id="Rectangle-16-Copy-3" x="50" y="11" width="4" height="4"></rect>
            </g>
        </g>
    </g>
</svg>